<svg version="1.1" xmlns="http://www.w3.org/2000/svg" xmlns:xlink="http://www.w3.org/1999/xlink" width="512.000000pt" height="512.000000pt" viewBox="0,0,256,256"><g fill="#ffffff" fill-rule="nonzero" stroke="none" stroke-width="1" stroke-linecap="butt" stroke-linejoin="miter" stroke-miterlimit="10" stroke-dasharray="" stroke-dashoffset="0" font-family="none" font-weight="none" font-size="none" text-anchor="none" style="mix-blend-mode: normal"><g transform="translate(-0.66101,-0.05) scale(0.5,0.5)"><g transform="translate(0,512) scale(0.1,-0.1)"><path d="M1919,5077c-24,-13 -56,-41 -70,-63c-14,-21 -241,-628 -503,-1349c-492,-1350 -494,-1357 -467,-1426c32,-85 124,-136 214,-119c60,12 87,28 120,72c15,20 203,520 472,1258c245,673 447,1226 449,1228c4,4 2517,-495 2523,-502c14,-14 -573,-1734 -815,-2386c-335,-903 -497,-1186 -751,-1314c-144,-73 -381,-75 -501,-3c-175,104 -261,294 -278,616l-7,133l-1110,449c-611,247 -1113,449 -1116,449c-3,0 -14,-46 -24,-102c-22,-120 -25,-347 -6,-448c46,-249 184,-467 379,-597c61,-41 1793,-832 1937,-885c133,-49 247,-70 372,-70c563,3 876,243 1178,904c197,429 634,1644 1043,2903c136,416 152,470 152,499c0,51 -24,103 -65,143c-37,35 -55,44 -117,57c-298,65 -2895,576 -2926,576c-21,0 -59,-10 -83,-23z"></path><path d="M2259,3987c-66,-35 -101,-93 -101,-167c0,-117 90,-200 217,-200c144,0 236,144 176,276c-46,100 -189,145 -292,91z"></path><path d="M2908,3820c-51,-16 -94,-49 -118,-92c-47,-84 -20,-201 58,-253c49,-32 894,-265 967,-266c63,-2 94,11 139,55c77,78 74,188 -7,273c-37,40 -29,37 -522,172c-416,114 -472,126 -517,111z"></path><path d="M1975,3184c-107,-39 -156,-164 -105,-270c40,-82 163,-133 251,-104c87,29 140,98 141,184c1,100 -65,176 -171,196c-65,12 -66,12 -116,-6z"></path><path d="M2545,3006c-22,-8 -56,-33 -76,-55c-83,-93 -56,-240 54,-298c16,-8 220,-78 455,-155c368,-122 436,-142 492,-142c74,-1 120,23 160,80c33,49 38,138 12,191c-40,77 -54,83 -525,238c-243,80 -462,147 -487,150c-27,3 -61,-1 -85,-9z"></path><path d="M1640,2418c-66,-36 -102,-94 -103,-166c-1,-129 97,-212 237,-200c185,15 242,254 83,352c-67,41 -155,47 -217,14z"></path><path d="M2245,2218c-50,-10 -107,-55 -129,-102c-38,-81 -9,-195 64,-244c54,-36 912,-314 970,-314c135,0 232,151 172,268c-43,84 -55,89 -520,243c-238,78 -451,145 -474,149c-24,5 -61,4 -83,0z"></path></g></g></g></svg>